<?xml version="1.0" encoding="UTF-8" standalone="no"?>
<!-- Created with Inkscape (http://www.inkscape.org/) -->

<svg
   xmlns:dc="http://purl.org/dc/elements/1.1/"
   xmlns:cc="http://creativecommons.org/ns#"
   xmlns:rdf="http://www.w3.org/1999/02/22-rdf-syntax-ns#"
   xmlns:svg="http://www.w3.org/2000/svg"
   xmlns="http://www.w3.org/2000/svg"
   xmlns:sodipodi="http://sodipodi.sourceforge.net/DTD/sodipodi-0.dtd"
   xmlns:inkscape="http://www.inkscape.org/namespaces/inkscape"
   width="559mm"
   height="269mm"
   viewBox="0 0 559 269"
   version="1.1"
   id="svg8"
   inkscape:version="0.92.3 (2405546, 2018-03-11)"
   sodipodi:docname="mandiri_investasi.svg">
  <defs
     id="defs2">
    <linearGradient
       id="linearGradient19772"
       spreadMethod="pad"
       gradientTransform="matrix(115.74992,53.483967,53.483967,-115.74992,103.35524,781.63821)"
       gradientUnits="userSpaceOnUse"
       y2="0"
       x2="1"
       y1="0"
       x1="0">
      <stop
         id="stop19774"
         offset="0"
         style="stop-opacity:1;stop-color:#fdb913" />
      <stop
         id="stop19776"
         offset="0.224719"
         style="stop-opacity:1;stop-color:#ffcb05" />
      <stop
         id="stop19778"
         offset="0.393258"
         style="stop-opacity:1;stop-color:#faa61a" />
      <stop
         id="stop19780"
         offset="0.52809"
         style="stop-opacity:1;stop-color:#ffcb05" />
      <stop
         id="stop19782"
         offset="0.646067"
         style="stop-opacity:1;stop-color:#faa61a" />
      <stop
         id="stop19784"
         offset="0.764045"
         style="stop-opacity:1;stop-color:#ffcb05" />
      <stop
         id="stop19786"
         offset="1"
         style="stop-opacity:1;stop-color:#ffcb05" />
    </linearGradient>
  </defs>
  <sodipodi:namedview
     id="base"
     pagecolor="#ffffff"
     bordercolor="#666666"
     borderopacity="1.0"
     inkscape:pageopacity="0.0"
     inkscape:pageshadow="2"
     inkscape:zoom="0.0875"
     inkscape:cx="3082.2105"
     inkscape:cy="1499.6002"
     inkscape:document-units="mm"
     inkscape:current-layer="g1182"
     showgrid="false"
     inkscape:window-width="1366"
     inkscape:window-height="745"
     inkscape:window-x="-8"
     inkscape:window-y="-8"
     inkscape:window-maximized="1" />
  <metadata
     id="metadata5">
    <rdf:RDF>
      <cc:Work
         rdf:about="">
        <dc:format>image/svg+xml</dc:format>
        <dc:type
           rdf:resource="http://purl.org/dc/dcmitype/StillImage" />
        <dc:title></dc:title>
      </cc:Work>
    </rdf:RDF>
  </metadata>
  <g
     inkscape:label="Layer 1"
     inkscape:groupmode="layer"
     id="layer1"
     transform="translate(0,-28)">
    <text
       id="text821"
       y="126.05112"
       x="-17.947512"
       style="font-style:normal;font-variant:normal;font-weight:normal;font-stretch:normal;font-size:50.79999924px;line-height:1.25;font-family:'Myriad Pro';-inkscape-font-specification:'Myriad Pro';letter-spacing:0px;word-spacing:0px;fill:#000000;fill-opacity:1;stroke:none;stroke-width:0.26458332"
       xml:space="preserve"><tspan
         style="font-style:normal;font-variant:normal;font-weight:300;font-stretch:normal;font-family:'Myriad Pro';-inkscape-font-specification:'Myriad Pro Light';letter-spacing:-1.41022933px;stroke-width:0.26458332"
         y="170.50111"
         x="-17.947512"
         id="tspan819"
         sodipodi:role="line" /></text>
    <g
       aria-label="taspen  pos"
       transform="scale(1.0045918,0.99542914)"
       style="font-style:normal;font-variant:normal;font-weight:normal;font-stretch:normal;font-size:63.46064377px;line-height:1.25;font-family:'Myriad Pro';-inkscape-font-specification:'Myriad Pro';letter-spacing:-2.64419365px;word-spacing:0px;fill:#000000;fill-opacity:1;stroke:none;stroke-width:0.33052418"
       id="text865" />
    <g
       id="g1013"
       transform="matrix(2.0980684,0,0,2.1307005,-20.792497,-61.946875)">
      <g
         aria-label="sekuritas"
         transform="scale(1.0181955,0.98212965)"
         style="font-style:normal;font-variant:normal;font-weight:normal;font-stretch:normal;font-size:59.34817886px;line-height:1.25;font-family:'Myriad Pro';-inkscape-font-specification:'Myriad Pro';letter-spacing:-2.47284126px;word-spacing:0px;fill:#000000;fill-opacity:1;stroke:none;stroke-width:0.30910507"
         id="text869">
        <g
           id="g1182">
          <g
             id="layer1-7"
             transform="matrix(1.1781421,0,0,1.221406,-95.15328,-168.9526)">
            <g
               id="g20360"
               transform="translate(0.50000158,-0.50000161)">
              <g
                 transform="matrix(1.25,0,0,-1.25,89.85469,218.68498)"
                 id="g19736">
                <path
                   inkscape:connector-curvature="0"
                   id="path19738"
                   style="fill:#003d79;fill-opacity:1;fill-rule:nonzero;stroke:none"
                   d="M 0,0 C 0,2.552 -0.045,4.696 -0.183,6.609 H 4.65 L 4.879,3.323 h 0.135 c 1.092,1.734 3.098,3.789 6.837,3.789 2.919,0 5.196,-1.645 6.152,-4.103 h 0.094 c 0.774,1.23 1.684,2.141 2.732,2.777 1.231,0.866 2.647,1.326 4.468,1.326 3.692,0 7.428,-2.507 7.428,-9.623 V -15.59 h -5.468 v 12.262 c 0,3.689 -1.276,5.88 -3.966,5.88 -1.914,0 -3.329,-1.368 -3.92,-2.965 -0.136,-0.542 -0.273,-1.23 -0.273,-1.864 V -15.59 h -5.47 v 12.858 c 0,3.093 -1.229,5.284 -3.83,5.284 -2.093,0 -3.506,-1.641 -4.012,-3.19 C 5.56,-1.184 5.468,-1.824 5.468,-2.46 V -15.59 H 0 Z" />
              </g>
              <g
                 transform="matrix(1.25,0,0,-1.25,157.39756,231.50735)"
                 id="g19740">
                <path
                   inkscape:connector-curvature="0"
                   id="path19742"
                   style="fill:#003d79;fill-opacity:1;fill-rule:nonzero;stroke:none"
                   d="m 0,0 c 0,-2.004 0.09,-3.962 0.317,-5.332 h -5.06 l -0.364,2.46 h -0.138 c -1.368,-1.734 -3.693,-2.96 -6.559,-2.96 -4.47,0 -6.976,3.233 -6.976,6.608 0,5.61 4.964,8.431 13.173,8.387 v 0.364 c 0,1.459 -0.595,3.875 -4.515,3.875 -2.189,0 -4.467,-0.685 -5.971,-1.64 l -1.093,3.646 c 1.641,1.004 4.512,1.962 8.02,1.962 C -2.053,17.37 0,12.853 0,8.025 Z m -5.472,5.513 c -3.967,0.093 -7.748,-0.772 -7.748,-4.145 0,-2.188 1.416,-3.192 3.191,-3.192 2.23,0 3.874,1.463 4.375,3.057 0.135,0.412 0.182,0.864 0.182,1.229 z" />
              </g>
              <g
                 transform="matrix(1.25,0,0,-1.25,162.23856,218.68498)"
                 id="g19744">
                <path
                   inkscape:connector-curvature="0"
                   id="path19746"
                   style="fill:#003d79;fill-opacity:1;fill-rule:nonzero;stroke:none"
                   d="M 0,0 C 0,2.552 -0.048,4.696 -0.179,6.609 H 4.739 L 5.012,3.277 h 0.139 c 0.956,1.734 3.373,3.835 7.064,3.835 3.876,0 7.885,-2.507 7.885,-9.53 V -15.59 h -5.605 v 12.532 c 0,3.193 -1.188,5.61 -4.24,5.61 C 8.024,2.552 6.471,0.957 5.88,-0.731 5.699,-1.232 5.652,-1.915 5.652,-2.551 V -15.59 H 0 Z" />
              </g>
              <g
                 transform="matrix(1.25,0,0,-1.25,217.74456,199.27835)"
                 id="g19748">
                <path
                   inkscape:connector-curvature="0"
                   id="path19750"
                   style="fill:#003d79;fill-opacity:1;fill-rule:nonzero;stroke:none"
                   d="m 0,0 v -24.87 c 0,-2.278 0.094,-4.742 0.183,-6.245 h -5.011 l -0.228,3.508 h -0.093 c -1.322,-2.461 -4.012,-4.008 -7.246,-4.008 -5.289,0 -9.479,4.512 -9.479,11.345 -0.048,7.432 4.6,11.856 9.934,11.856 3.052,0 5.241,-1.276 6.243,-2.923 h 0.093 V 0 Z m -5.604,-18.169 c 0,0.454 -0.045,1.001 -0.138,1.46 -0.501,2.183 -2.276,3.962 -4.83,3.962 -3.601,0 -5.609,-3.191 -5.609,-7.338 0,-4.053 2.008,-7.018 5.565,-7.018 2.274,0 4.282,1.55 4.828,3.967 0.139,0.5 0.184,1.049 0.184,1.64 z" />
              </g>
              <path
                 inkscape:connector-curvature="0"
                 id="path19752"
                 style="fill:#003d79;fill-opacity:1;fill-rule:nonzero;stroke:none"
                 d="m 222.70156,210.42473 h 7.06875 v 27.7475 h -7.06875 z" />
              <g
                 transform="matrix(1.25,0,0,-1.25,234.72231,219.37148)"
                 id="g19754">
                <path
                   inkscape:connector-curvature="0"
                   id="path19756"
                   style="fill:#003d79;fill-opacity:1;fill-rule:nonzero;stroke:none"
                   d="M 0,0 C 0,3.009 -0.045,5.154 -0.179,7.158 H 4.698 L 4.877,2.923 h 0.185 c 1.094,3.141 3.69,4.235 6.065,4.235 0.544,0 0.863,0.091 1.317,0 V 2.233 C 11.99,2.325 11.49,2.415 10.806,2.415 8.114,2.415 6.29,0.684 5.79,-1.819 5.702,-2.322 5.609,-2.917 5.609,-3.556 V -15.041 H 0 Z" />
              </g>
              <path
                 inkscape:connector-curvature="0"
                 id="path19758"
                 style="fill:#003d79;fill-opacity:1;fill-rule:nonzero;stroke:none"
                 d="m 253.52906,210.42473 h 7.06 v 27.7475 h -7.06 z" />
              <g
                 transform="matrix(1.25,0,0,-1.25,44.62531,1166.6247)"
                 id="g19760">
                <g
                   id="g19762">
                  <g
                     id="g19768">
                    <g
                       id="g19770">
                      <path
                         inkscape:connector-curvature="0"
                         id="path19788"
                         style="fill:url(#linearGradient19772);stroke:none"
                         d="m 165.968,791.833 c -3.402,-1.972 -14.49,-8.307 -14.49,-8.307 v 0 c -4.163,-1.716 -7.352,0.374 -8.385,1.906 v 0 c -0.046,0.058 -0.092,0.127 -0.122,0.184 v 0 l -0.136,0.233 -0.703,1.148 c -0.3,0.474 -0.634,0.962 -1.017,1.463 v 0 c -0.342,0.438 -0.722,0.872 -1.135,1.291 v 0 c -2.672,2.701 -6.949,4.598 -14.074,1.209 v 0 c -4.309,-2.459 -14.329,-8.189 -14.329,-8.189 v 0 c -0.001,-0.003 -0.001,-0.003 -0.002,-0.003 v 0 c -4.123,-2.357 -7.335,-4.191 -7.335,-4.191 v 0 l 3.795,-4.66 c 1.596,-1.521 4.598,-4.016 9.242,-1.912 v 0 c 0,0 12.816,7.421 12.866,7.443 v 0 c 10.957,6.013 16.365,0.267 18.754,-3.563 v 0 c 0.083,-0.118 0.152,-0.249 0.225,-0.365 v 0 l 0.006,-0.005 c 0.028,-0.046 0.049,-0.09 0.072,-0.134 v 0 l 0.273,-0.443 c 1.162,-1.765 3.001,-2.905 5.189,-2.853 v 0 c 1.208,0.024 2.028,0.418 3.22,1.081 v 0 l 12.401,7.192 c 0.008,0.004 0.014,0.009 0.027,0.011 v 0 c 11.092,6.086 16.59,-0.035 18.939,-3.864 v 0 c 0.182,-0.332 0.392,-0.647 0.602,-0.943 v 0 c 1.162,-1.576 2.767,-2.609 4.803,-2.558 v 0 c 1.344,0.027 2.854,0.834 3.076,0.982 v 0 l 14.869,8.579 c 0,0 -1.521,2.294 -4.649,5.871 v 0 c -2.797,3.191 -5.772,1.747 -8.135,0.572 v 0 c -0.993,-0.49 -8.171,-4.559 -8.171,-4.559 v 0 c -3.932,-1.622 -6.995,0.148 -8.197,1.637 v 0 c -0.124,0.158 -0.231,0.304 -0.313,0.448 v 0 l -0.277,0.485 c -0.431,0.727 -0.945,1.547 -1.578,2.357 v 0 c -0.339,0.439 -0.717,0.878 -1.132,1.293 v 0 c -1.653,1.67 -3.914,3.031 -7.079,3.032 v 0 c -1.987,0 -4.328,-0.536 -7.1,-1.868" />
                    </g>
                  </g>
                </g>
              </g>
            </g>
          </g>
          <g
             aria-label="investasi"
             transform="matrix(1.0046924,0,0,0.98274654,3.7619153,0)"
             style="font-style:normal;font-variant:normal;font-weight:normal;font-stretch:normal;font-size:11.23094749px;line-height:1.25;font-family:'Myriad Pro';-inkscape-font-specification:'Myriad Pro';letter-spacing:-0.44190937px;word-spacing:0px;fill:#003d79;fill-opacity:1;stroke:none;stroke-width:0.05849452"
             id="text873">
            <g
               id="g1247"
               transform="matrix(5.3197762,0,0,5.5996711,-1548.107,-702.54508)"
               style="fill:#003d79;fill-opacity:1">
              <path
                 id="path1236"
                 d="m 293.02344,156.1079 v -5.39085 h -0.52785 v 5.39085 z"
                 style="font-style:normal;font-variant:normal;font-weight:300;font-stretch:normal;font-family:'Myriad Pro';-inkscape-font-specification:'Myriad Pro Light';letter-spacing:-0.26004478px;stroke-width:0.05849452;fill:#003d79;fill-opacity:1"
                 inkscape:connector-curvature="0" />
              <path
                 inkscape:connector-curvature="0"
                 id="path1213"
                 style="font-style:normal;font-variant:normal;font-weight:300;font-stretch:normal;font-family:'Myriad Pro';-inkscape-font-specification:'Myriad Pro Light';letter-spacing:-0.26004478px;stroke-width:0.05849452;fill:#003d79;fill-opacity:1"
                 d="m 294.64868,156.08492 h 0.52785 v -3.33559 c 0,-0.16846 0.0337,-0.34816 0.0786,-0.48293 0.21339,-0.69632 0.85355,-1.2354 1.61726,-1.2354 1.11186,0 1.49371,0.88724 1.49371,1.86434 v 3.18958 h 0.52786 v -3.23451 c 0,-2.02157 -1.35895,-2.27988 -1.87557,-2.27988 -0.88725,0 -1.5611,0.49416 -1.85311,1.10063 h -0.0225 l -0.0449,-0.97709 h -0.49417 c 0.0225,0.42678 0.0449,0.7974 0.0449,1.29156 z" />
              <path
                 inkscape:connector-curvature="0"
                 id="path1215"
                 style="font-style:normal;font-variant:normal;font-weight:300;font-stretch:normal;font-family:'Myriad Pro';-inkscape-font-specification:'Myriad Pro Light';letter-spacing:-0.26004478px;stroke-width:0.05849452;fill:#003d79;fill-opacity:1"
                 d="m 299.57004,150.69407 2.11142,5.39085 h 0.4717 l 2.19004,-5.39085 h -0.56155 l -1.28033,3.34682 c -0.20215,0.51663 -0.39308,0.98833 -0.55031,1.43756 h -0.0225 c -0.146,-0.44923 -0.31446,-0.9097 -0.52785,-1.43756 l -1.25787,-3.34682 z" />
              <path
                 inkscape:connector-curvature="0"
                 id="path1217"
                 style="font-style:normal;font-variant:normal;font-weight:300;font-stretch:normal;font-family:'Myriad Pro';-inkscape-font-specification:'Myriad Pro Light';letter-spacing:-0.26004478px;stroke-width:0.05849452;fill:#003d79;fill-opacity:1"
                 d="m 309.16923,153.36304 c 0.0225,-0.0898 0.0225,-0.17969 0.0225,-0.32569 0,-0.77494 -0.33693,-2.43712 -2.10018,-2.43712 -1.39264,0 -2.42589,1.12309 -2.42589,2.92005 0,1.58356 0.96586,2.71789 2.51573,2.71789 0.9434,0 1.49372,-0.23585 1.69588,-0.34816 l -0.13478,-0.42678 c -0.30323,0.146 -0.70755,0.30324 -1.49371,0.30324 -1.11187,0 -2.05526,-0.67386 -2.05526,-2.40343 z m -3.94206,-0.42677 c 0.0898,-0.83109 0.60647,-1.89803 1.79695,-1.89803 1.30279,0 1.61726,1.14555 1.60603,1.89803 z" />
              <path
                 inkscape:connector-curvature="0"
                 id="path1219"
                 style="font-style:normal;font-variant:normal;font-weight:300;font-stretch:normal;font-family:'Myriad Pro';-inkscape-font-specification:'Myriad Pro Light';letter-spacing:-0.26004478px;stroke-width:0.05849452;fill:#003d79;fill-opacity:1"
                 d="m 309.92346,155.82382 c 0.35939,0.22462 0.84232,0.38186 1.37018,0.38186 1.10063,0 1.81941,-0.62894 1.81941,-1.54988 0,-0.81985 -0.51662,-1.25786 -1.39264,-1.59479 -0.73001,-0.30324 -1.11186,-0.55032 -1.11186,-1.11186 0,-0.49417 0.35939,-0.93217 1.04448,-0.93217 0.53908,0 0.88724,0.19092 1.06694,0.32569 l 0.21338,-0.438 c -0.28077,-0.19093 -0.69632,-0.33693 -1.19048,-0.33693 -1.05571,0 -1.66218,0.68509 -1.66218,1.46002 0,0.6514 0.48293,1.13433 1.37018,1.47126 0.77493,0.31446 1.13432,0.62893 1.13432,1.22417 0,0.56155 -0.40431,1.02202 -1.25786,1.02202 -0.48293,0 -0.92094,-0.19093 -1.21294,-0.37063 z" />
              <path
                 inkscape:connector-curvature="0"
                 id="path1221"
                 style="font-style:normal;font-variant:normal;font-weight:300;font-stretch:normal;font-family:'Myriad Pro';-inkscape-font-specification:'Myriad Pro Light';letter-spacing:-0.26004478px;stroke-width:0.05849452;fill:#003d79;fill-opacity:1"
                 d="m 314.61088,149.7517 v 0.98832 h -0.90971 v 0.42678 h 0.90971 v 3.4142 c 0,0.55032 0.0898,0.99956 0.33692,1.28033 0.20216,0.25831 0.52786,0.39309 0.92094,0.39309 0.3257,0 0.57278,-0.0562 0.75248,-0.13478 l -0.0674,-0.41554 c -0.13477,0.0449 -0.33693,0.0898 -0.6177,0.0898 -0.57278,0 -0.78617,-0.43801 -0.78617,-1.1231 v -3.50405 h 1.53864 v -0.42678 h -1.53864 v -1.19048 z" />
              <path
                 inkscape:connector-curvature="0"
                 id="path1223"
                 style="font-style:normal;font-variant:normal;font-weight:300;font-stretch:normal;font-family:'Myriad Pro';-inkscape-font-specification:'Myriad Pro Light';letter-spacing:-0.26004478px;stroke-width:0.05849452;fill:#003d79;fill-opacity:1"
                 d="m 320.9613,152.75036 c 0,-0.96586 -0.29201,-2.13388 -1.85311,-2.13388 -0.48293,0 -1.0894,0.13477 -1.57233,0.46047 l 0.16846,0.39308 c 0.38185,-0.28077 0.87602,-0.40431 1.34772,-0.40431 1.28032,-0.0112 1.3814,1.05571 1.3814,1.59479 v 0.13477 c -2.19003,-0.0225 -3.29067,0.73001 -3.29067,1.97665 0,0.71878 0.5054,1.48249 1.58357,1.48249 0.86478,0 1.46002,-0.48294 1.71833,-0.89848 h 0.0337 l 0.0786,0.77493 h 0.48293 c -0.0562,-0.41554 -0.0786,-0.85355 -0.0786,-1.28032 z m -0.52786,1.65095 c 0,0.10108 -0.0225,0.21339 -0.0562,0.3257 -0.19093,0.52785 -0.69632,1.07817 -1.5948,1.07817 -0.56154,0 -1.07817,-0.34816 -1.07817,-1.1231 0,-1.29156 1.54987,-1.47125 2.72912,-1.43756 z" />
              <path
                 inkscape:connector-curvature="0"
                 id="path1225"
                 style="font-style:normal;font-variant:normal;font-weight:300;font-stretch:normal;font-family:'Myriad Pro';-inkscape-font-specification:'Myriad Pro Light';letter-spacing:-0.26004478px;stroke-width:0.05837428;fill:#003d79;fill-opacity:1"
                 d="m 322.1655,155.86867 c 0.35431,0.22691 0.8304,0.38575 1.35078,0.38575 1.08507,0 1.79367,-0.63535 1.79367,-1.56567 0,-0.8282 -0.50932,-1.27067 -1.37292,-1.61104 -0.71969,-0.30633 -1.09615,-0.55592 -1.09615,-1.12318 0,-0.49921 0.35432,-0.94167 1.0297,-0.94167 0.53147,0 0.8747,0.19287 1.05185,0.32901 l 0.21037,-0.44246 c -0.2768,-0.19288 -0.68647,-0.34037 -1.17364,-0.34037 -1.04077,0 -1.63866,0.69207 -1.63866,1.4749 0,0.65803 0.4761,1.14588 1.3508,1.48625 0.76396,0.31766 1.11827,0.63533 1.11827,1.23664 0,0.56727 -0.39859,1.03243 -1.24006,1.03243 -0.47611,0 -0.90791,-0.19288 -1.19579,-0.37441 z" />
              <path
                 id="path1232"
                 d="m 327.08522,156.09838 v -5.39085 h -0.52785 v 5.39085 z"
                 style="font-style:normal;font-variant:normal;font-weight:300;font-stretch:normal;font-family:'Myriad Pro';-inkscape-font-specification:'Myriad Pro Light';letter-spacing:-0.26004478px;stroke-width:0.05849452;fill:#003d79;fill-opacity:1"
                 inkscape:connector-curvature="0" />
            </g>
          </g>
        </g>
      </g>
    </g>
  </g>
</svg>
